HIERARCHY
ROOT Hips
{
  OFFSET 0 89.5177 0.535
  CHANNELS 6 Xposition Yposition Zposition Zrotation Xrotation Yrotation
  JOINT Spine
  {
    OFFSET 12.0259 -0.162855 1.69034e-005
    CHANNELS 3 Zrotation Xrotation Yrotation
    JOINT Spine1
    {
      OFFSET 15.3169 -0.0121922 0
      CHANNELS 3 Zrotation Xrotation Yrotation
      JOINT Spine2
      {
        OFFSET 15.3176 -0.0121908 0
        CHANNELS 3 Zrotation Xrotation Yrotation
        JOINT Neck
        {
          OFFSET 19.9142 1.56338 0
          CHANNELS 3 Zrotation Xrotation Yrotation
          JOINT Head
          {
            OFFSET 6.92651 0 0
            CHANNELS 3 Zrotation Xrotation Yrotation
            End Site
            {
              OFFSET 20.7666 0 0
            }
          }
          JOINT LeftShoulder
          {
            OFFSET -6.20654 0.708824 7.28219
            CHANNELS 3 Zrotation Xrotation Yrotation
            JOINT LeftArm
            {
              OFFSET 14.108 0 -1.52588e-005
              CHANNELS 3 Zrotation Xrotation Yrotation
              JOINT LeftForeArm
              {
                OFFSET 28.5802 0 0
                CHANNELS 3 Zrotation Xrotation Yrotation
                JOINT LeftHand
                {
                  OFFSET 27.092 0 0
                  CHANNELS 3 Zrotation Xrotation Yrotation
                  End Site
                  {
                    OFFSET 9.55928 -0.186424 0.145352
                  }
                }
              }
            }
          }
          JOINT RightShoulder
          {
            OFFSET -6.20654 0.708866 -7.28218
            CHANNELS 3 Zrotation Xrotation Yrotation
            JOINT RightArm
            {
              OFFSET 14.108 0 1.52588e-005
              CHANNELS 3 Zrotation Xrotation Yrotation
              JOINT RightForeArm
              {
                OFFSET 28.5802 0 0
                CHANNELS 3 Zrotation Xrotation Yrotation
                JOINT RightHand
                {
                  OFFSET 27.092 0 0
                  CHANNELS 3 Zrotation Xrotation Yrotation
                  End Site
                  {
                    OFFSET 9.55929 -0.186417 -0.145354
                  }
                }
              }
            }
          }
        }
      }
    }
  }
  JOINT LeftUpLeg
  {
    OFFSET 0.005 -0.535 8.837
    CHANNELS 3 Zrotation Xrotation Yrotation
    JOINT LeftLeg
    {
      OFFSET 39.9035 0 0
      CHANNELS 3 Zrotation Xrotation Yrotation
      JOINT LeftFoot
      {
        OFFSET 39.6689 0 0
        CHANNELS 3 Zrotation Xrotation Yrotation
        JOINT LeftToe
        {
          OFFSET 10.1624 13.6296 0
          CHANNELS 3 Zrotation Xrotation Yrotation
          End Site
          {
            OFFSET 8.38147 0 0
          }
        }
      }
    }
  }
  JOINT RightUpLeg
  {
    OFFSET 0.005 -0.535 -8.837
    CHANNELS 3 Zrotation Xrotation Yrotation
    JOINT RightLeg
    {
      OFFSET 39.9035 0 0
      CHANNELS 3 Zrotation Xrotation Yrotation
      JOINT RightFoot
      {
        OFFSET 39.6689 0 0
        CHANNELS 3 Zrotation Xrotation Yrotation
        JOINT RightToe
        {
          OFFSET 10.1624 13.6296 0
          CHANNELS 3 Zrotation Xrotation Yrotation
          End Site
          {
            OFFSET 8.38147 0 0
          }
        }
      }
    }
  }
}
MOTION
Frames:	16
Frame Time:	0.0333333
283.544 83.2114 58.9641 -80.2459 -19.3838 177.264 4.64824 -0.313691 1.2791 9.30247 -0.522136 2.57957 9.30247 -0.522137 2.57956 -8.30649e-012 -9.0191e-006 -5.27751e-005 13.0423 18.7681 -19.4286 -179.763 -0.659615 -70.2264 -12.308 21.5824 62.7135 -88.4643 0 7.95139e-016 -93.5743 -58.0101 -111.846 -178.649 5.97819 77.2454 -24.4687 26.7046 -54.3055 -98.0303 2.38542e-015 6.36111e-015 -54.8085 68.5238 71.858 -13.1952 3.46432 177.991 -76.6905 1.59028e-015 -6.36111e-015 8.02174 3.76516 -7.66358 90 3.18055e-015 -3.18055e-015 5.99502 -6.45113 -179.174 -34.2377 1.59028e-015 -0 24.9295 -2.56534 5.40063 90 0 -1.59028e-015 
290.512 83.971 57.0204 -80.0167 -20.6286 179.903 4.60427 0.681177 0.626203 9.20186 1.41087 1.19594 9.20186 1.41087 1.19594 -8.30987e-012 -9.0191e-006 -5.27751e-005 13.448 15.9791 -18.5037 -179.418 -1.65742 -70.6432 -13.3546 24.2564 62.7823 -89.1473 9.93923e-017 1.98785e-016 -88.8847 -60.0945 -105.594 -178.932 4.96062 77.8395 -23.3892 24.4816 -57.5889 -101.098 -1.2921e-015 -9.54166e-015 -51.436 64.6824 67.6838 -16.5227 7.26923 175.979 -68.9935 -4.77083e-015 -6.36111e-015 11.8737 3.70993 -7.63265 90 -3.18055e-015 7.95139e-015 12.7637 -7.16472 179.135 -30.4056 3.18056e-015 1.59028e-015 21.276 -2.55574 5.38471 90 3.97569e-016 -1.59028e-015 
297.705 85.0026 54.8145 -82.5776 -21.232 -179.745 4.07626 1.69249 0.202243 8.15189 3.39556 0.283857 8.15189 3.39556 0.283848 -8.30231e-012 -9.0191e-006 -5.27751e-005 14.3809 13.7452 -18.1085 -179.037 -2.76982 -70.8097 -13.7943 26.3795 62.6325 -89.4002 -1.19271e-015 -0 -85.7712 -62.0856 -101.271 -179.065 4.24765 77.5709 -26.3336 19.7705 -58.3993 -102.167 0 -0 -48.8613 57.7102 62.2594 -19.6667 11.3778 175 -56.4013 3.18055e-015 3.18055e-015 14.7184 4.06673 -8.49319 90 -3.18055e-015 -0 16.175 -7.12572 178.346 -26.8619 -1.59028e-015 -0 12.7268 -3.33187 6.97153 90 0 -3.18055e-015 
305.228 86.1687 52.0958 -83.9041 -23.469 -178.67 3.77796 2.12173 -0.121845 7.56817 4.23128 -0.383702 7.56817 4.23128 -0.383711 -8.30748e-012 -9.0191e-006 -5.27751e-005 15.6693 12.2431 -18.0428 -178.842 -3.34018 -70.8674 -12.4612 27.0887 62.8418 -89.2582 0 1.59028e-015 -85.2368 -64.8054 -100.464 -179.011 4.32424 77.1001 -33.3582 13.2791 -57.3309 -99.3172 -2.38542e-015 1.27222e-014 -49.447 50.0438 58.4021 -18.2273 13.8545 172.368 -39.7486 -3.18055e-015 -3.18055e-015 17.3189 5.91519 -12.5588 90 -6.36111e-015 -0 19.9686 -10.3743 176.955 -23.6234 -7.95139e-016 7.95139e-015 1.86179 -5.86724 12.2151 90 7.95139e-016 -4.77083e-015 
312.79 86.6648 49.2301 -85.357 -26.3515 -178.848 3.34419 2.20078 -0.174374 6.70244 4.38809 -0.477433 6.70244 4.38809 -0.477442 -8.3043e-012 -9.0191e-006 -5.27751e-005 17.3362 11.6369 -17.5567 -178.934 -3.177 -71.4311 -10.0789 26.3466 63.8809 -89.529 -1.59028e-015 -3.18055e-015 -79.9825 -66.1866 -94.6995 -178.917 4.74034 77.1159 -43.0239 6.39153 -56.3096 -91.108 -1.98785e-016 -6.36111e-015 -53.3825 43.3138 57.672 -15.9674 16.1861 170.503 -25.9843 0 1.59028e-015 20.4495 9.1821 -19.93 90 0 -3.18055e-015 20.8169 -14.3893 176.029 -24.0538 1.59028e-015 -0 -8.24668 -9.32305 19.5863 90 -2.78299e-015 3.18055e-015 
320.337 86.4465 46.7871 -83.0232 -28.7427 -177.059 3.53627 1.99213 -0.306603 7.08952 3.96198 -0.736192 7.08952 3.96198 -0.736201 -8.30828e-012 -9.0191e-006 -5.27751e-005 19.0741 12.295 -16.687 -179.081 -2.88993 -72.3523 -8.79587 25.4911 65.1527 -90.3312 3.18055e-015 3.18055e-015 -72.5268 -65.4891 -85.9124 -179.064 4.2053 77.4456 -51.9641 1.58461 -56.4107 -81.3754 2.18663e-015 -0 -48.1545 40.9688 49.7225 -11.9226 16.4829 168.536 -22.0014 3.18055e-015 -4.77083e-015 18.8996 8.49929 -18.4302 90 -1.59028e-015 6.36111e-015 22.5195 -10.584 176.328 -29.6462 1.59028e-015 -0 -19.9453 -9.99922 20.899 90 1.04362e-015 -0 
327.567 85.1523 44.174 -80.792 -31.7846 -175.489 3.81125 1.43232 -0.379999 7.63543 2.83664 -0.854696 7.63543 2.83664 -0.854706 -8.3051e-012 -9.0191e-006 -5.27751e-005 19.4822 13.6063 -16.271 -179.235 -2.4341 -72.5445 -9.31842 24.221 65.2729 -91.6367 0 6.36111e-015 -66.5846 -63.0664 -77.9356 -179.192 3.54725 77.1564 -57.9106 -0.427458 -55.9404 -74.7503 1.2424e-015 -0 -34.1011 44.4947 38.1708 -11.6205 10.5552 166.718 -29.4243 -3.18055e-015 -1.59028e-015 13.5488 3.85275 -8.22517 90 0 3.18055e-015 20.3857 -9.84372 175.88 -39.7729 3.18056e-015 3.18056e-015 -23.9148 -11.0012 22.979 90 1.98785e-016 -0 
334.53 83.7111 41.5178 -78.0879 -33.8044 -172.345 4.44172 1.06986 -0.737103 8.89905 2.0798 -1.55515 8.89905 2.0798 -1.55516 -8.3043e-012 -9.0191e-006 -5.27751e-005 17.7497 14.813 -16.4249 -179.344 -1.95541 -71.451 -12.3825 21.5923 63.1889 -91.7184 -1.59028e-015 -3.18055e-015 -62.4302 -63.2411 -73.1521 -179.127 3.55502 76.1889 -58.423 -0.919062 -55.5072 -72.7288 1.2921e-015 -3.97569e-016 -15.6852 49.5095 25.3046 -10.7646 6.41136 164.874 -39.2168 -3.18055e-015 -6.36111e-015 16.7346 2.14055 -4.59339 90 -4.77083e-015 -1.27222e-014 15.3024 -10.5751 173.008 -52.9976 -2.38542e-015 -6.36111e-015 -16.0553 -8.57171 17.6309 90 1.59028e-015 3.18055e-015 
341.19 82.6035 38.8776 -77.6739 -33.9954 -171.348 4.69452 1.05564 -1.0115 9.40916 2.02526 -2.10641 9.40916 2.02526 -2.10642 -8.30907e-012 -9.0191e-006 -5.27751e-005 16.3937 16.5187 -16.3483 -179.315 -1.93146 -70.4645 -16.5795 18.8762 60.9858 -89.6179 -1.59028e-015 -6.36111e-015 -58.304 -63.7475 -68.6274 -178.955 4.06207 75.5563 -54.3625 -1.76289 -56.7822 -74.2081 3.23025e-016 5.46658e-016 -18.8554 49.3639 27.6791 -7.67758 6.01411 164.785 -43.8618 6.36111e-015 3.18055e-015 23.0327 2.01217 -4.33259 90 3.18055e-015 -9.54166e-015 6.81763 -9.07985 170.316 -63.7251 4.77083e-015 9.54167e-015 -7.21093 -4.02732 8.13436 90 3.18055e-015 -0 
347.646 82.3734 36.0699 -78.7 -34.0398 -171.46 4.59923 0.645837 -1.15226 9.21128 1.19755 -2.35269 9.21128 1.19755 -2.3527 -8.31225e-012 -9.0191e-006 -5.27751e-005 16.6854 20.0073 -18.6203 -179.244 -2.0638 -69.8826 -17.4134 17.5351 60.1358 -88.2477 -7.95139e-016 -0 -52.0948 -62.6995 -61.4399 -178.838 4.48997 75.4728 -48.4342 -2.30803 -58.477 -76.4413 -3.57812e-015 4.77083e-015 -25.7878 48.9835 33.6146 -3.49453 4.77961 164.843 -43.7498 -3.18055e-015 -3.18055e-015 26.7696 1.86836 -4.02115 90 0 6.36111e-015 -2.3652 -6.67183 168.557 -68.4187 0 3.18056e-015 0.975218 -0.220363 0.420108 90 -1.27222e-014 -1.59028e-015 
354.385 83.022 33.0622 -79.0909 -35.378 -172.534 4.49242 -0.18695 -0.808085 8.98185 -0.436116 -1.59895 8.98185 -0.436116 -1.59896 -8.30589e-012 -9.0191e-006 -5.27751e-005 19.0345 23.6603 -23.3906 -179.13 -2.31573 -69.3906 -16.2666 17.6786 60.191 -87.6983 0 -3.18055e-015 -51.1696 -61.2393 -59.8754 -178.616 5.59765 76.0895 -42.213 -2.83209 -59.4449 -78.4067 -7.95139e-016 -3.18055e-015 -30.0979 50.085 38.6123 2.40848 2.1006 166.51 -40.5433 3.18055e-015 -3.18055e-015 27.3495 1.87839 -4.02254 90 1.59028e-015 3.18055e-015 -8.72902 -5.71701 169.165 -65.4345 0 -0 6.27705 1.38624 -2.82376 90 -3.18055e-015 -1.59028e-015 
361.318 84.3994 29.7848 -79.6167 -36.9304 -173.826 4.34195 -0.919861 -0.39902 8.67913 -1.86679 -0.727262 8.67913 -1.86679 -0.727272 -8.30987e-012 -9.0191e-006 -5.27751e-005 21.9873 26.3294 -28.138 -178.953 -2.77389 -69.3062 -15.7057 18.3792 60.5085 -86.854 0 -3.18055e-015 -53.3175 -60.7447 -62.1742 -178.251 7.34213 76.5604 -36.3997 -4.25731 -58.4369 -80.4177 -1.59028e-015 -3.18055e-015 -33.5657 50.9141 42.7193 8.46443 0.180402 169.126 -36.3636 0 -0 22.7676 2.49685 -5.26459 90 6.36111e-015 3.18055e-015 -12.4635 -5.51279 170.362 -55.7173 -6.36111e-015 -3.18056e-015 8.90857 0.755808 -1.51747 90 0 -0 
368.577 86.0727 26.3193 -80.7113 -38.0533 -175.161 4.0677 -1.42401 -0.14157 8.13567 -2.854 -0.181668 8.13567 -2.854 -0.181677 -8.30112e-012 -9.0191e-006 -5.27751e-005 24.7174 28.3648 -31.376 -178.78 -3.28101 -69.5857 -14.9543 19.3995 60.5312 -85.6857 3.97569e-016 1.59028e-015 -54.5558 -61.4462 -63.7378 -178.048 8.47684 76.9792 -30.964 -6.06188 -56.1627 -81.3179 3.18055e-015 3.18055e-015 -36.0141 51.9752 46.0915 13.2425 1.55083 172.435 -32.9433 -6.36111e-015 -0 14.2883 4.00503 -8.33134 90 3.18055e-015 -6.36111e-015 -13.3794 -5.49788 171.855 -40.0454 3.18056e-015 1.59028e-015 10.1779 -0.943532 1.98507 90 -1.59028e-015 3.18055e-015 
376.152 87.3871 22.4292 -81.3951 -39.3346 -175.639 3.83906 -1.86389 -0.0636939 7.68216 -3.72738 -0.00218549 7.68216 -3.72738 -0.00219475 -8.30748e-012 -9.0191e-006 -5.27751e-005 27.0435 30.0937 -32.7158 -178.489 -4.1562 -70.0042 -14.0131 20.0651 60.1197 -83.923 0 -0 -53.5624 -62.9944 -63.2054 -178.04 9.13754 77.8418 -27.2327 -7.18506 -53.5902 -80.1694 0 1.27222e-014 -36.0193 53.9377 47.3137 17.0425 2.73599 175.047 -30.1999 0 -3.18055e-015 2.03126 5.42661 -11.2219 90 0 -0 -11.6467 -8.17442 172.516 -21.9075 -3.18056e-015 -0 13.3084 -4.42207 9.25861 90 7.95139e-016 6.36111e-015 
383.777 87.7387 18.5019 -81.7535 -40.7113 -175.114 3.56983 -2.16415 -0.208956 7.13943 -4.33662 -0.282724 7.13943 -4.33662 -0.282734 -8.30748e-012 -9.0191e-006 -5.27751e-005 28.5555 31.2608 -32.0695 -178.309 -4.7797 -70.4928 -12.4722 20.8284 59.3202 -82.1013 3.97569e-016 -0 -52.9052 -63.9804 -62.8165 -178.148 9.2864 78.6716 -25.7049 -8.0283 -50.8689 -78.4358 -6.36111e-015 -9.54166e-015 -33.5807 56.1799 46.1736 18.1424 1.14854 176.232 -31.8929 3.18055e-015 -0 -10.0385 5.68617 -11.6997 90 0 -3.18055e-015 -9.91341 -12.4966 172.596 -9.11929 3.18056e-015 -1.98785e-016 16.2342 -9.20804 19.7467 90 -3.18055e-015 6.36111e-015 
391.164 87.1128 15.0327 -80.5199 -40.9016 -174.775 3.6333 -1.91535 -0.212914 7.26559 -3.83985 -0.304007 7.26559 -3.83985 -0.304016 -8.30589e-012 -9.0191e-006 -5.27751e-005 27.8762 31.8439 -30.5027 -178.288 -4.93817 -70.846 -10.3364 21.2078 57.6829 -80.8841 -1.59028e-015 -6.36111e-015 -52.6708 -64.0998 -62.4699 -178.338 9.12654 79.6366 -25.6699 -7.65717 -48.8292 -77.4611 -9.54166e-015 3.18055e-015 -28.5824 57.4591 42.2054 16.623 -1.48314 177.14 -40.1378 -6.36111e-015 -6.36111e-015 -19.6148 4.71222 -9.60136 90 -1.27222e-014 7.95139e-016 -8.42328 -12.3572 174.868 -7.73726 0 -5.96354e-016 13.6812 -9.18395 19.6722 90 -3.18055e-015 -3.18055e-015 
